<?xml version="1.0" encoding="iso-8859-1"?>
<!-- Generator: Adobe Illustrator 19.0.0, SVG Export Plug-In . SVG Version: 6.00 Build 0)  -->
<svg version="1.1" id="Layer_1" xmlns="http://www.w3.org/2000/svg" xmlns:xlink="http://www.w3.org/1999/xlink" x="0px" y="0px"
	 viewBox="0 0 278.256 278.256" style="enable-background:new 0 0 278.256 278.256;" xml:space="preserve">
<g>
	<g>
		<g>
			<path d="M244.264,111.572c0-25.028-20.364-45.392-45.392-45.392c-23.584,0-42.932,18.112-45.088,41.144h-6.864l3.36-11.808
				l2.988-10.496l-0.004-0.004l2.992-10.52l6.048-21.256v-0.004l2.696-9.48l5.604-19.7v-0.004l5.988-21.056L166.06,0l-0.348,1.24
				L135.18,107.324h-24.94L94.876,78.38l39.512-20.98l-52.884-4.208l-4.636-8.732l-0.48-0.9l-4.704,2.5l5.112,9.628l-26.14,46.164
				l39.512-20.98l14.04,26.448h-3.292l-0.472,0.284c-26.228,15.812-42.52,46.468-42.52,80c0,1.552,0.092,3.076,0.168,4.608
				c-9.552-1.076-16.908,1.104-17.388,1.252l-1.436,0.44l0.528,1.412c0.348,0.936,8.704,22.872,25.048,33.616
				c-3.396,0.684-6.84,1.732-10.1,3.304c-15.044,7.252-20.072,22.584-20.276,23.232l-0.476,1.504l1.548,0.316
				c0.404,0.084,5.512,1.088,12.408,1.088c6.576,0,14.768-0.916,22.056-4.428c0.428-0.208,0.82-0.44,1.224-0.664
				c1.94,2.432,4.848,4.12,8.184,4.556c0.352,0.044,0.728,0.068,1.12,0.068c1.58,0,3.48-0.404,5.468-1.06
				c-0.376,2.12-0.504,4.088-0.228,5.56c0.876,4.656,3.976,8.052,8.292,9.08c0.852,0.204,1.72,0.3,2.58,0.3
				c2.512,0,4.972-0.892,7.068-2.428c10.46,5.664,22.14,8.896,34.5,8.896c44.268,0,80.284-40.664,80.284-90.644
				c0-11.484-1.952-22.612-5.52-32.944C231.112,148.724,244.264,131.672,244.264,111.572z M173.096,4.956l-0.796,2.8
				c-0.732-1.224-1.464-2.44-2.216-3.656L173.096,4.956z M167.484,5.364c1.264,2.052,2.532,4.1,3.74,6.176l-2.524,8.872
				c-1.152-2.168-2.36-4.36-3.652-6.576L167.484,5.364z M163.992,17.68c1.272,2.252,2.476,4.488,3.584,6.668l-3.216,11.316
				l-0.092,0.32c-1.168-2.316-2.336-4.636-3.508-6.948L163.992,17.68z M159.548,32.932c1.192,2.36,2.384,4.72,3.572,7.084
				l-2.696,9.476l-3.584-7.148L159.548,32.932z M155.78,46.548l3.496,6.972l-3.932,13.836c-1.156-2.276-2.344-4.54-3.556-6.788
				L155.78,46.548z M150.52,64.304c1.244,2.36,2.492,4.716,3.672,7.108l-2.732,9.6c-1.132-2.472-2.312-4.98-3.58-7.54L150.52,64.304
				z M146.872,77.86c1.208,2.504,2.34,4.972,3.392,7.368l-0.528,1.86l-3.748,13.152c-1.176-2.304-2.348-4.608-3.512-6.92
				L146.872,77.86z M141.128,96.92c1.236,2.44,2.472,4.88,3.724,7.316l-0.88,3.092h-5.84L141.128,96.92z M158.108,111.296
				l7.376,30.076l-0.692,0.656c-7.308,6.924-16.752,10.74-26.584,10.74c-10.04,0-19.596-3.948-26.956-11.112l7.444-30.36H158.108z
				 M174.392,111.3v-0.004c15.728,9.64,27.644,24.936,34.26,42.992c-13.708,4.316-29.148,0.6-39.192-9.444l-1.152-1.152
				c-0.512-0.508-0.992-1.028-1.472-1.56l-7.56-30.832H174.392z M165.708,106.68c0.544-4.488,0.708-5.844,2.568-9.512
				c1.404-2.764,4.308-5.996,6.56-6.388c0.148-0.028,0.292-0.04,0.432-0.04c0.516,0,0.952,0.184,1.352,0.564
				c2.38,2.252,13.536,14.192,17.392,18.324l-14.716,0.152c-1.096-0.74-2.188-1.488-3.324-2.172l-0.472-0.284h-9.772
				C165.724,107.108,165.676,106.928,165.708,106.68z M184.28,113.416c3.936,0.096,7.644,0.196,9.8,0.26l-4.308,4.456
				C188.016,116.472,186.172,114.912,184.28,113.416z M192.44,120.816c1.824-1.752,3.436-3.292,4.512-4.324l0.112,9.472
				C195.592,124.176,194.04,122.472,192.44,120.816z M200.612,130.58c0.116-5.384,0.272-11.2,0.356-14.156l18.072,17.84
				c0.016,0.012,1.22,1.08,1.196,2.344c-0.012,0.728-0.444,1.432-1.284,2.096c-3.524,2.792-4.584,3.632-8.456,4.904
				c-0.584,0.192-1.232,0.336-1.896,0.46C206.288,139.32,203.636,134.796,200.612,130.58z M74.444,46.908l1.1-0.584l3.548,6.68
				l-0.736-0.06l-0.364,0.644L74.444,46.908z M73.856,86.336l5.932-18.472c0.096-0.296-0.068-0.616-0.368-0.712
				c-0.276-0.096-0.612,0.068-0.712,0.368l-6.184,19.248c-0.028,0.088,0.008,0.172,0.02,0.26l-14.628,7.768l22.016-38.884
				l44.544,3.544l-14.82,7.868l-15.604-5.712c-0.3-0.104-0.62,0.036-0.728,0.336c-0.108,0.292,0.044,0.62,0.336,0.728l14.652,5.364
				l-16.1,8.548l-6.364-11.712c-0.156-0.28-0.5-0.368-0.768-0.232c-0.276,0.152-0.38,0.496-0.232,0.768l6.364,11.708L73.856,86.336z
				 M91.972,79.92l1.104-0.584l14.86,27.988h-1.412L91.972,79.92z M102.024,111.296h15.5l-7.22,29.444l-0.372-0.368l-0.988,1.156
				c-0.636,0.744-1.292,1.468-1.992,2.164c-7.228,7.232-17.244,11.38-27.468,11.38h-1.152c-3.472,0-6.94-0.508-10.336-1.456
				C74.66,135.848,86.488,120.816,102.024,111.296z M74.78,200.988c5.548,3.572,10.116,8.62,13.796,13.676
				c-0.256-0.116-0.52-0.256-0.764-0.34c-4.332-1.524-8.652-0.624-11.688,2.348L43.54,195.7
				C48.544,194.672,62.232,192.912,74.78,200.988z M95.272,226.472c-0.04,0.076-0.096,0.132-0.132,0.208
				c-0.128,0.276-0.164,0.596-0.252,0.892c-1.004-0.408-2.032-0.66-3.06-0.52c-1.428,0.2-3.432,1.052-4.86,3.996
				c-0.392,0.812-0.58,1.616-0.676,2.408c-1.232,0.08-2.456,0.244-3.656,0.46c-2.528-1.784-4.568-3.808-5.256-5.468
				c-1.304-3.132-0.796-6.48,1.332-8.732c1.324-1.404,3.048-2.124,4.94-2.124c0.916,0,1.864,0.168,2.832,0.508
				C89,218.984,92.74,222.528,95.272,226.472z M91.992,216.828c0.2,0.048,0.4,0.08,0.592,0.148c-0.02,0.1-0.044,0.188-0.068,0.284
				C92.34,217.112,92.168,216.968,91.992,216.828z M114.368,231.036c-0.496-0.736-1.088-1.292-1.716-1.768
				c0.556-1.132,1.036-2.296,1.448-3.468c2.792-1.276,5.544-2.016,7.316-1.772c3.368,0.436,6.012,2.556,6.9,5.524
				c0.816,2.732-0.092,5.48-2.492,7.54c-2.02,1.736-6.952,3.22-11.632,3.448c-0.048-0.076-0.068-0.156-0.12-0.232
				c-0.176-0.252-0.44-0.448-0.656-0.676c0.86-0.668,1.596-1.436,1.984-2.388C115.948,235.908,116.208,233.744,114.368,231.036z
				 M112.78,236.18c-0.284,0.7-0.944,1.272-1.752,1.724c-1.396-0.636-2.988-0.952-4.556-0.784c-0.612,0.064-1.184,0.2-1.716,0.392
				c-0.896-1.224-0.5-2.62-0.18-3.344c0.78-1.776,2.556-3.168,4.22-3.32c1.256-0.12,2.348,0.488,3.232,1.784
				C112.94,233.972,113.192,235.168,112.78,236.18z M101.976,233.016c-0.248,0.556-0.416,1.116-0.516,1.672
				c-0.136-0.024-0.272,0-0.412-0.012c-1.304-0.04-2.156-0.916-2.58-1.492c-1.14-1.564-1.456-3.8-0.752-5.316
				c0.532-1.152,1.592-1.792,3.156-1.908c0.196-0.016,0.384-0.024,0.564-0.024c1.324,0,2.296,0.388,2.888,1.148
				c0.464,0.596,0.636,1.452,0.616,2.38C103.684,230.36,102.612,231.584,101.976,233.016z M102.412,239.08
				c-0.392,0.424-0.724,0.896-0.976,1.436c-0.564-0.124-1.144-0.176-1.744-0.116c-0.172-0.552-0.416-1.08-0.764-1.572
				c0.388-0.42,0.72-0.892,0.972-1.428c0.404,0.092,0.816,0.156,1.236,0.156c0.172,0,0.344-0.016,0.52-0.032
				C101.828,238.072,102.072,238.596,102.412,239.08z M99.368,244.892c0.248-0.56,0.42-1.124,0.52-1.68
				c0.044-0.004,0.08,0.012,0.124,0.008c0.22,0.032,0.432,0.092,0.652,0.092c0.092,0,0.188-0.024,0.284-0.032
				c0.952,0.252,1.576,0.968,1.924,1.444c1.144,1.568,1.46,3.8,0.756,5.32c-0.532,1.148-1.596,1.788-3.16,1.904
				c-1.648,0.128-2.776-0.26-3.444-1.12c-0.464-0.596-0.632-1.456-0.616-2.38C97.66,247.552,98.732,246.328,99.368,244.892z
				 M103.968,241.76c0.048-0.108,0.12-0.172,0.176-0.268c0.06-0.084,0.156-0.132,0.208-0.224c0.044-0.068,0.048-0.152,0.084-0.224
				c0.7-0.788,1.704-1.044,2.328-1.112c1.944-0.208,4.024,0.64,4.984,2.004c0.732,1.036,0.752,2.276,0.068,3.688
				c-0.704,1.456-1.612,2.272-2.696,2.42c-0.748,0.12-1.576-0.132-2.364-0.616c-0.14-1.544-0.664-3.1-1.592-4.376
				C104.8,242.556,104.4,242.128,103.968,241.76z M108.792,228.036c-0.084,0.004-0.164-0.02-0.248-0.012
				c-0.3,0.028-0.592,0.156-0.888,0.224c-0.152-1.076-0.468-2.092-1.096-2.9c-0.884-1.144-2.584-2.456-5.896-2.216
				c-0.884,0.064-1.66,0.296-2.38,0.6c-0.7-1.044-1.468-2.032-2.272-2.972c0.296-3.064,1.036-5.824,2.116-7.24
				c2.06-2.7,5.22-3.932,8.228-3.208c2.776,0.66,4.704,2.82,5.288,5.92C112.132,218.864,110.936,223.872,108.792,228.036z
				 M96.176,234.86c0.364,0.496,0.772,0.908,1.208,1.272c-0.048,0.112-0.124,0.176-0.184,0.276c-0.064,0.088-0.164,0.14-0.22,0.236
				c-0.044,0.072-0.048,0.16-0.092,0.236c-0.696,0.78-1.692,1.032-2.32,1.096c-1.904,0.236-4.012-0.64-4.98-2.004
				c-0.732-1.036-0.752-2.276-0.068-3.688c0.704-1.456,1.608-2.272,2.692-2.42c0.124-0.016,0.248-0.024,0.376-0.024
				c0.648,0,1.332,0.284,1.996,0.688C94.732,232.06,95.256,233.596,96.176,234.86z M43.628,197.112l9.904,6.376l-5.376,2.42
				C46.088,202.36,44.572,199.224,43.628,197.112z M48.736,206.884l5.932-2.668l6.552,4.216l-8.684,4.248
				C51.12,210.712,49.86,208.756,48.736,206.884z M53.22,213.608l9.112-4.46l7.904,5.088l-11.104,6.308
				C56.952,218.344,54.984,215.988,53.22,213.608z M59.964,221.376l11.348-6.448l4.036,2.596C73,220.36,72.16,224.22,73.04,227.952
				c-1.216,0.068-2.432,0.152-3.704,0.296c-0.88-0.456-1.764-0.904-2.636-1.464C64.28,225.224,62.036,223.38,59.964,221.376z
				 M46.368,255.492c-2.96-0.064-5.484-0.304-7.296-0.528l8.16-3.936L46.368,255.492z M47.52,255.504l0.988-5.092l5.628-2.712
				l-1.232,7.628C51.02,255.472,49.22,255.516,47.52,255.504z M61.188,254.04c-2.396,0.58-4.796,0.952-7.12,1.176l1.312-8.116
				l6.856-3.308L61.188,254.04z M70.668,240.276c-1.868,2.74-2.424,6.016-1.472,9.216c0.016,0.056,0.044,0.108,0.064,0.168
				l-0.24,1.6c-0.088,0.044-0.164,0.096-0.252,0.136c-2.068,0.996-4.228,1.76-6.412,2.352l1.08-10.532l7.32-3.532L70.668,240.276z
				 M38.02,254.208c1.872-4.304,7.152-14.204,17.96-19.412c5.848-2.824,12.412-3.796,18.148-4.02
				c0.756,1.388,1.984,2.864,3.564,4.304l-1.9,0.916c-0.016,0.008-0.036,0.016-0.052,0.024L38.02,254.208z M87.196,252.168
				c-2.78,1.236-5.512,1.944-7.276,1.704c-3.368-0.436-6.008-2.556-6.892-5.52c-0.816-2.736,0.088-5.48,2.488-7.54
				c2.02-1.736,6.948-3.224,11.628-3.456c0.052,0.08,0.072,0.168,0.128,0.244c0.172,0.244,0.416,0.44,0.62,0.66
				c-0.856,0.672-1.572,1.456-1.956,2.404c-0.544,1.336-0.804,3.496,1.036,6.204c0.496,0.732,1.084,1.292,1.704,1.768
				C88.112,249.788,87.612,250.976,87.196,252.168z M88.564,241.732c0.284-0.692,0.92-1.272,1.724-1.724
				c1.144,0.524,2.428,0.832,3.712,0.832c0.292,0,0.584-0.016,0.876-0.048c0.608-0.064,1.18-0.2,1.712-0.392
				c0.896,1.224,0.504,2.62,0.184,3.34c-0.78,1.776-2.556,3.172-4.224,3.32c-1.296,0.084-2.352-0.488-3.232-1.784
				C88.404,243.936,88.152,242.744,88.564,241.732z M103.208,264.392c-2.056,2.688-5.232,3.904-8.22,3.204
				c-2.776-0.66-4.704-2.82-5.288-5.924c-0.488-2.612,0.692-7.612,2.824-11.772c0.092-0.004,0.184-0.004,0.276-0.012
				c0.304-0.028,0.596-0.156,0.896-0.228c0.152,1.08,0.46,2.1,1.088,2.908c0.812,1.052,2.352,2.24,5.128,2.24
				c0.244,0,0.496-0.008,0.756-0.028c0.88-0.064,1.656-0.292,2.376-0.592c0.708,1.052,1.472,2.06,2.284,3.004
				C105.02,260.24,104.284,262.984,103.208,264.392z M106.2,251.236c0.124-0.264,0.156-0.572,0.244-0.856
				c0.76,0.308,1.532,0.532,2.304,0.532c0.256,0,0.512-0.02,0.764-0.056c1.428-0.196,3.436-1.052,4.864-3.996
				c0.384-0.796,0.576-1.584,0.672-2.36c1.256-0.088,2.504-0.248,3.724-0.476c2.492,1.792,4.512,3.804,5.192,5.44
				c1.304,3.132,0.792,6.48-1.332,8.732c-1.96,2.076-4.796,2.656-7.772,1.612c-2.516-0.884-6.26-4.42-8.796-8.36
				C106.1,251.372,106.164,251.316,106.2,251.236z M214.528,187.608c0,47.792-34.236,86.676-76.316,86.676
				c-11.272,0-21.96-2.828-31.596-7.84c0.956-1.4,1.716-3.428,2.208-5.792c1.652,1.388,3.292,2.436,4.704,2.932
				c1.404,0.492,2.804,0.736,4.164,0.736c2.976,0,5.752-1.16,7.844-3.376c3.18-3.364,4.012-8.472,2.12-13.016
				c-0.68-1.632-2.168-3.456-4.12-5.188c2.028-0.736,3.752-1.628,4.888-2.604c3.596-3.084,4.988-7.468,3.72-11.72
				c-1.324-4.432-5.332-7.712-10.216-8.348c-1.752-0.212-4.088,0.204-6.564,1.016c0.384-2.14,0.476-4.1,0.2-5.584
				c-0.876-4.656-3.976-8.048-8.292-9.076c-4.484-1.068-9.34,0.756-12.332,4.668c-0.848,1.112-1.54,2.748-2.064,4.64
				c-4.092-6.128-9.608-12.648-16.568-17.128c-4.776-3.076-9.656-4.8-14.224-5.736c-0.1-1.744-0.192-3.488-0.192-5.26
				c0-10.916,1.832-21.492,5.184-31.316c3.696,1.048,7.472,1.616,11.256,1.616h1.152c10.976,0,21.72-4.452,29.472-12.212
				c0.06-0.06,0.116-0.124,0.18-0.188l-7.632,31.124c-0.076,0.304,0.112,0.612,0.416,0.688c0.048,0.012,0.092,0.016,0.136,0.016
				c0.252,0,0.488-0.172,0.552-0.428l7.872-32.1c7.72,6.968,17.484,10.796,27.732,10.796c10.088,0,19.788-3.736,27.472-10.548
				c0.208,0.216,0.416,0.428,0.62,0.64l0.32,0.32l7.576,30.892c0.064,0.256,0.296,0.428,0.552,0.428
				c0.044,0,0.088-0.004,0.136-0.016c0.3-0.076,0.488-0.384,0.416-0.688l-7.16-29.192c10.804,10.312,27.064,14.172,41.452,9.584
				C212.788,166.64,214.528,176.964,214.528,187.608z M211.612,150.908c-0.7-1.788-1.448-3.552-2.248-5.28
				c0.572-0.112,1.144-0.232,1.66-0.4c4.156-1.364,5.372-2.324,8.98-5.184c1.256-1,1.908-2.144,1.928-3.404
				c0.04-2.08-1.712-3.6-1.744-3.624l-20.812-20.552l-0.06,1.956c-0.016,0.512-0.208,7.24-0.36,13.98
				c-0.056-0.072-0.112-0.148-0.168-0.22l-0.184-15.612l-1.416,1.348c-0.264,0.252-2.788,2.66-5.952,5.696
				c-0.092-0.092-0.18-0.184-0.272-0.272l7.008-7.252l-1.924-0.06c-0.512-0.016-7.332-0.212-14.08-0.368
				c-0.088-0.064-0.172-0.136-0.264-0.2l16.172-0.164l-1.312-1.412c-0.644-0.696-15.868-17.052-18.776-19.812
				c-0.896-0.844-1.98-1.18-3.248-0.964c-2.912,0.508-6.184,4.136-7.78,7.296c-1.996,3.932-2.184,5.48-2.74,10.076
				c-0.04,0.312,0.024,0.564,0.036,0.848h-6.3c2.14-20.844,19.724-37.176,41.12-37.176c22.84,0,41.42,18.584,41.42,41.42
				C240.296,129.96,228.224,145.516,211.612,150.908z"/>
			<path d="M196.944,78.952c-2.304-1.604-6.876-1.372-10.016-0.344c-3.944,1.292-5.184,2.276-8.5,4.904
				c-1.188,0.948-1.808,2.028-1.828,3.22c-0.036,1.968,1.62,3.404,1.648,3.428l19.7,19.444l0.056-1.848
				c0.024-0.9,0.632-22.14,0.508-25.952C198.472,80.628,197.928,79.64,196.944,78.952z M196.44,105.86l-17.104-16.884
				c-0.016-0.012-1.148-1.02-1.128-2.216c0.012-0.688,0.42-1.356,1.216-1.984c3.328-2.64,4.332-3.436,8.004-4.64
				c1.396-0.46,3.136-0.74,4.74-0.74c1.552,0,2.98,0.264,3.856,0.872c0.568,0.4,0.856,0.916,0.876,1.584
				C197.004,84.968,196.592,100.468,196.44,105.86z"/>
			<path d="M219.164,89.82c0.8-0.876,1.108-1.98,0.9-3.196c-0.492-2.852-3.92-6.048-6.896-7.612
				c-3.728-1.952-5.192-2.132-9.536-2.672c-1.512-0.188-2.716,0.144-3.572,0.984c-1.432,1.4-1.264,3.676-1.26,3.716l0.324,28.56
				l1.352-1.308C201.128,107.656,216.56,92.684,219.164,89.82z M201.184,78.52c0.388-0.38,0.948-0.572,1.664-0.572
				c0.184,0,0.38,0.012,0.584,0.04c4.24,0.528,5.516,0.688,8.984,2.5c2.608,1.372,5.66,4.216,6.044,6.428
				c0.124,0.704-0.036,1.288-0.492,1.784c-2.124,2.336-13.348,13.276-17.264,17.088l-0.284-24.824
				C200.42,80.948,200.316,79.368,201.184,78.52z"/>
			<path d="M226.624,110.952c0.652,0,1.18-0.004,1.544-0.016c1.188-0.04,2.188-0.588,2.892-1.576
				c1.672-2.356,1.448-7.116,0.384-10.4c-1.324-4.08-2.328-5.364-5.012-8.796c-0.968-1.236-2.08-1.872-3.3-1.888
				c-0.024-0.004-0.04-0.004-0.06-0.004c-1.988,0-3.432,1.684-3.456,1.716l-19.848,20.368l1.88,0.056
				C202.48,110.432,220.36,110.952,226.624,110.952z M220.852,91.088c0.012-0.012,1.016-1.168,2.216-1.168c0.008,0,0.02,0,0.032,0
				c0.696,0.012,1.376,0.436,2.02,1.252c2.696,3.444,3.508,4.488,4.744,8.288c0.928,2.88,1.128,7.12-0.164,8.952
				c-0.404,0.564-0.92,0.848-1.584,0.872c-3.188,0.136-19.036-0.316-24.54-0.468L220.852,91.088z"/>
			<path d="M232.724,112.772c-1.404-1.448-3.656-1.276-3.688-1.272l-28.484,0.336l1.288,1.372
				c0.636,0.672,15.572,16.552,18.428,19.228c0.7,0.656,1.544,0.996,2.472,0.996c0.232,0,0.468-0.024,0.708-0.064
				c2.856-0.492,6.056-4.028,7.62-7.1c1.948-3.832,2.144-5.456,2.668-9.8C233.924,114.896,233.58,113.656,232.724,112.772z
				 M232.08,116.272c-0.524,4.36-0.688,5.676-2.496,9.252c-1.372,2.692-4.216,5.836-6.42,6.22c-0.692,0.116-1.252-0.036-1.748-0.504
				c-2.332-2.192-13.284-13.776-17.068-17.788l24.764-0.296c0.012,0,1.568-0.108,2.416,0.776
				C232.02,114.436,232.204,115.228,232.08,116.272z"/>
		</g>
	</g>
</g>
<g>
</g>
<g>
</g>
<g>
</g>
<g>
</g>
<g>
</g>
<g>
</g>
<g>
</g>
<g>
</g>
<g>
</g>
<g>
</g>
<g>
</g>
<g>
</g>
<g>
</g>
<g>
</g>
<g>
</g>
</svg>
